<mxfile host="app.diagrams.net" agent="Mozilla/5.0 (Windows NT 10.0; Win64; x64) AppleWebKit/537.36 (KHTML, like Gecko) Chrome/131.0.0.0 Safari/537.36" version="24.8.6">
  <diagram name="Trang-1" id="zkX1GtRGweVglJpzCkzE">
    <mxGraphModel dx="1679" dy="929" grid="1" gridSize="10" guides="1" tooltips="1" connect="1" arrows="1" fold="1" page="1" pageScale="1" pageWidth="827" pageHeight="1169" math="0" shadow="0">
      <root>
        <mxCell id="0" />
        <mxCell id="1" parent="0" />
        <mxCell id="eE4sNqY_-e1mMS-vRgXw-1" value="Quản lý luyện thi toeic" style="rounded=0;whiteSpace=wrap;html=1;" vertex="1" parent="1">
          <mxGeometry x="520" y="290" width="120" height="60" as="geometry" />
        </mxCell>
        <mxCell id="eE4sNqY_-e1mMS-vRgXw-2" value="Quản lý chủ đề" style="rounded=0;whiteSpace=wrap;html=1;" vertex="1" parent="1">
          <mxGeometry x="30" y="430" width="120" height="60" as="geometry" />
        </mxCell>
        <mxCell id="eE4sNqY_-e1mMS-vRgXw-3" value="Quản lý từ vựng&lt;span style=&quot;color: rgba(0, 0, 0, 0); font-family: monospace; font-size: 0px; text-align: start; text-wrap-mode: nowrap;&quot;&gt;%3CmxGraphModel%3E%3Croot%3E%3CmxCell%20id%3D%220%22%2F%3E%3CmxCell%20id%3D%221%22%20parent%3D%220%22%2F%3E%3CmxCell%20id%3D%222%22%20value%3D%22Qu%E1%BA%A3n%20l%C3%BD%20ch%E1%BB%A7%20%C4%91%E1%BB%81%22%20style%3D%22rounded%3D0%3BwhiteSpace%3Dwrap%3Bhtml%3D1%3B%22%20vertex%3D%221%22%20parent%3D%221%22%3E%3CmxGeometry%20x%3D%22120%22%20y%3D%22430%22%20width%3D%22120%22%20height%3D%2260%22%20as%3D%22geometry%22%2F%3E%3C%2FmxCell%3E%3C%2Froot%3E%3C%2FmxGraphModel%3E&lt;/span&gt;&lt;span style=&quot;color: rgba(0, 0, 0, 0); font-family: monospace; font-size: 0px; text-align: start; text-wrap-mode: nowrap;&quot;&gt;%3CmxGraphModel%3E%3Croot%3E%3CmxCell%20id%3D%220%22%2F%3E%3CmxCell%20id%3D%221%22%20parent%3D%220%22%2F%3E%3CmxCell%20id%3D%222%22%20value%3D%22Qu%E1%BA%A3n%20l%C3%BD%20ch%E1%BB%A7%20%C4%91%E1%BB%81%22%20style%3D%22rounded%3D0%3BwhiteSpace%3Dwrap%3Bhtml%3D1%3B%22%20vertex%3D%221%22%20parent%3D%221%22%3E%3CmxGeometry%20x%3D%22120%22%20y%3D%22430%22%20width%3D%22120%22%20height%3D%2260%22%20as%3D%22geometry%22%2F%3E%3C%2FmxCell%3E%3C%2Froot%3E%3C%2FmxGraphModel%3E&lt;/span&gt;" style="rounded=0;whiteSpace=wrap;html=1;" vertex="1" parent="1">
          <mxGeometry x="190" y="430" width="120" height="60" as="geometry" />
        </mxCell>
        <mxCell id="eE4sNqY_-e1mMS-vRgXw-4" value="Quản lý bài học" style="rounded=0;whiteSpace=wrap;html=1;" vertex="1" parent="1">
          <mxGeometry x="520" y="430" width="120" height="60" as="geometry" />
        </mxCell>
        <mxCell id="eE4sNqY_-e1mMS-vRgXw-5" value="Quản lý Part" style="rounded=0;whiteSpace=wrap;html=1;" vertex="1" parent="1">
          <mxGeometry x="354" y="430" width="120" height="60" as="geometry" />
        </mxCell>
        <mxCell id="eE4sNqY_-e1mMS-vRgXw-6" value="Quản lý câu hỏi" style="rounded=0;whiteSpace=wrap;html=1;" vertex="1" parent="1">
          <mxGeometry x="860" y="430" width="120" height="60" as="geometry" />
        </mxCell>
        <mxCell id="eE4sNqY_-e1mMS-vRgXw-7" value="Quản lý nhóm câu hỏi" style="rounded=0;whiteSpace=wrap;html=1;" vertex="1" parent="1">
          <mxGeometry x="690" y="430" width="120" height="60" as="geometry" />
        </mxCell>
        <mxCell id="eE4sNqY_-e1mMS-vRgXw-8" value="Quản lý tài khoản" style="rounded=0;whiteSpace=wrap;html=1;" vertex="1" parent="1">
          <mxGeometry x="1030" y="430" width="120" height="60" as="geometry" />
        </mxCell>
        <mxCell id="eE4sNqY_-e1mMS-vRgXw-9" value="" style="endArrow=none;html=1;rounded=0;entryX=0.5;entryY=1;entryDx=0;entryDy=0;exitX=0.5;exitY=0;exitDx=0;exitDy=0;" edge="1" parent="1" source="eE4sNqY_-e1mMS-vRgXw-4" target="eE4sNqY_-e1mMS-vRgXw-1">
          <mxGeometry width="50" height="50" relative="1" as="geometry">
            <mxPoint x="590" y="640" as="sourcePoint" />
            <mxPoint x="640" y="590" as="targetPoint" />
          </mxGeometry>
        </mxCell>
        <mxCell id="eE4sNqY_-e1mMS-vRgXw-10" value="" style="endArrow=none;html=1;rounded=0;" edge="1" parent="1">
          <mxGeometry width="50" height="50" relative="1" as="geometry">
            <mxPoint x="90" y="380" as="sourcePoint" />
            <mxPoint x="1090" y="380" as="targetPoint" />
          </mxGeometry>
        </mxCell>
        <mxCell id="eE4sNqY_-e1mMS-vRgXw-11" value="" style="endArrow=none;html=1;rounded=0;exitX=0.5;exitY=0;exitDx=0;exitDy=0;" edge="1" parent="1" source="eE4sNqY_-e1mMS-vRgXw-2">
          <mxGeometry width="50" height="50" relative="1" as="geometry">
            <mxPoint x="590" y="640" as="sourcePoint" />
            <mxPoint x="90" y="380" as="targetPoint" />
          </mxGeometry>
        </mxCell>
        <mxCell id="eE4sNqY_-e1mMS-vRgXw-12" value="" style="endArrow=none;html=1;rounded=0;entryX=0.5;entryY=0;entryDx=0;entryDy=0;" edge="1" parent="1" target="eE4sNqY_-e1mMS-vRgXw-8">
          <mxGeometry width="50" height="50" relative="1" as="geometry">
            <mxPoint x="1090" y="380" as="sourcePoint" />
            <mxPoint x="640" y="590" as="targetPoint" />
          </mxGeometry>
        </mxCell>
        <mxCell id="eE4sNqY_-e1mMS-vRgXw-13" value="" style="endArrow=none;html=1;rounded=0;entryX=0.5;entryY=0;entryDx=0;entryDy=0;" edge="1" parent="1" target="eE4sNqY_-e1mMS-vRgXw-3">
          <mxGeometry width="50" height="50" relative="1" as="geometry">
            <mxPoint x="250" y="380" as="sourcePoint" />
            <mxPoint x="640" y="590" as="targetPoint" />
          </mxGeometry>
        </mxCell>
        <mxCell id="eE4sNqY_-e1mMS-vRgXw-14" value="" style="endArrow=none;html=1;rounded=0;entryX=0.5;entryY=0;entryDx=0;entryDy=0;" edge="1" parent="1" target="eE4sNqY_-e1mMS-vRgXw-5">
          <mxGeometry width="50" height="50" relative="1" as="geometry">
            <mxPoint x="414" y="380" as="sourcePoint" />
            <mxPoint x="640" y="590" as="targetPoint" />
          </mxGeometry>
        </mxCell>
        <mxCell id="eE4sNqY_-e1mMS-vRgXw-15" value="" style="endArrow=none;html=1;rounded=0;entryX=0.5;entryY=0;entryDx=0;entryDy=0;" edge="1" parent="1" target="eE4sNqY_-e1mMS-vRgXw-7">
          <mxGeometry width="50" height="50" relative="1" as="geometry">
            <mxPoint x="750" y="380" as="sourcePoint" />
            <mxPoint x="640" y="590" as="targetPoint" />
          </mxGeometry>
        </mxCell>
        <mxCell id="eE4sNqY_-e1mMS-vRgXw-16" value="" style="endArrow=none;html=1;rounded=0;entryX=0.5;entryY=0;entryDx=0;entryDy=0;" edge="1" parent="1" target="eE4sNqY_-e1mMS-vRgXw-6">
          <mxGeometry width="50" height="50" relative="1" as="geometry">
            <mxPoint x="920" y="380" as="sourcePoint" />
            <mxPoint x="640" y="590" as="targetPoint" />
          </mxGeometry>
        </mxCell>
        <mxCell id="eE4sNqY_-e1mMS-vRgXw-17" value="" style="endArrow=none;html=1;rounded=0;entryX=0.25;entryY=1;entryDx=0;entryDy=0;" edge="1" parent="1" target="eE4sNqY_-e1mMS-vRgXw-2">
          <mxGeometry width="50" height="50" relative="1" as="geometry">
            <mxPoint x="60" y="670" as="sourcePoint" />
            <mxPoint x="640" y="590" as="targetPoint" />
          </mxGeometry>
        </mxCell>
        <mxCell id="eE4sNqY_-e1mMS-vRgXw-18" value="Xóa" style="rounded=0;whiteSpace=wrap;html=1;" vertex="1" parent="1">
          <mxGeometry x="80" y="640" width="70" height="60" as="geometry" />
        </mxCell>
        <mxCell id="eE4sNqY_-e1mMS-vRgXw-20" value="" style="endArrow=none;html=1;rounded=0;exitX=0;exitY=0.5;exitDx=0;exitDy=0;" edge="1" parent="1" source="eE4sNqY_-e1mMS-vRgXw-18">
          <mxGeometry width="50" height="50" relative="1" as="geometry">
            <mxPoint x="170" y="700" as="sourcePoint" />
            <mxPoint x="60" y="670" as="targetPoint" />
          </mxGeometry>
        </mxCell>
        <mxCell id="eE4sNqY_-e1mMS-vRgXw-21" value="Sửa" style="rounded=0;whiteSpace=wrap;html=1;" vertex="1" parent="1">
          <mxGeometry x="80" y="570" width="70" height="60" as="geometry" />
        </mxCell>
        <mxCell id="eE4sNqY_-e1mMS-vRgXw-22" value="Thêm" style="rounded=0;whiteSpace=wrap;html=1;" vertex="1" parent="1">
          <mxGeometry x="80" y="500" width="70" height="60" as="geometry" />
        </mxCell>
        <mxCell id="eE4sNqY_-e1mMS-vRgXw-23" value="" style="endArrow=none;html=1;rounded=0;exitX=0;exitY=0.5;exitDx=0;exitDy=0;" edge="1" parent="1">
          <mxGeometry width="50" height="50" relative="1" as="geometry">
            <mxPoint x="80" y="599.8" as="sourcePoint" />
            <mxPoint x="60" y="599.8" as="targetPoint" />
          </mxGeometry>
        </mxCell>
        <mxCell id="eE4sNqY_-e1mMS-vRgXw-24" value="" style="endArrow=none;html=1;rounded=0;exitX=0;exitY=0.5;exitDx=0;exitDy=0;" edge="1" parent="1">
          <mxGeometry width="50" height="50" relative="1" as="geometry">
            <mxPoint x="80" y="529.8" as="sourcePoint" />
            <mxPoint x="60" y="529.8" as="targetPoint" />
          </mxGeometry>
        </mxCell>
        <mxCell id="eE4sNqY_-e1mMS-vRgXw-25" value="" style="endArrow=none;html=1;rounded=0;entryX=0.25;entryY=1;entryDx=0;entryDy=0;" edge="1" parent="1">
          <mxGeometry width="50" height="50" relative="1" as="geometry">
            <mxPoint x="220" y="740" as="sourcePoint" />
            <mxPoint x="220" y="490" as="targetPoint" />
          </mxGeometry>
        </mxCell>
        <mxCell id="eE4sNqY_-e1mMS-vRgXw-26" value="Xóa" style="rounded=0;whiteSpace=wrap;html=1;" vertex="1" parent="1">
          <mxGeometry x="240" y="640" width="70" height="60" as="geometry" />
        </mxCell>
        <mxCell id="eE4sNqY_-e1mMS-vRgXw-27" value="" style="endArrow=none;html=1;rounded=0;exitX=0;exitY=0.5;exitDx=0;exitDy=0;" edge="1" parent="1" source="eE4sNqY_-e1mMS-vRgXw-26">
          <mxGeometry width="50" height="50" relative="1" as="geometry">
            <mxPoint x="330" y="700" as="sourcePoint" />
            <mxPoint x="220" y="670" as="targetPoint" />
          </mxGeometry>
        </mxCell>
        <mxCell id="eE4sNqY_-e1mMS-vRgXw-28" value="Sửa" style="rounded=0;whiteSpace=wrap;html=1;" vertex="1" parent="1">
          <mxGeometry x="240" y="570" width="70" height="60" as="geometry" />
        </mxCell>
        <mxCell id="eE4sNqY_-e1mMS-vRgXw-29" value="Thêm" style="rounded=0;whiteSpace=wrap;html=1;" vertex="1" parent="1">
          <mxGeometry x="240" y="500" width="70" height="60" as="geometry" />
        </mxCell>
        <mxCell id="eE4sNqY_-e1mMS-vRgXw-30" value="" style="endArrow=none;html=1;rounded=0;exitX=0;exitY=0.5;exitDx=0;exitDy=0;" edge="1" parent="1">
          <mxGeometry width="50" height="50" relative="1" as="geometry">
            <mxPoint x="240" y="599.8" as="sourcePoint" />
            <mxPoint x="220" y="599.8" as="targetPoint" />
          </mxGeometry>
        </mxCell>
        <mxCell id="eE4sNqY_-e1mMS-vRgXw-31" value="" style="endArrow=none;html=1;rounded=0;exitX=0;exitY=0.5;exitDx=0;exitDy=0;" edge="1" parent="1">
          <mxGeometry width="50" height="50" relative="1" as="geometry">
            <mxPoint x="240" y="529.8" as="sourcePoint" />
            <mxPoint x="220" y="529.8" as="targetPoint" />
          </mxGeometry>
        </mxCell>
        <mxCell id="eE4sNqY_-e1mMS-vRgXw-32" value="" style="endArrow=none;html=1;rounded=0;entryX=0.25;entryY=1;entryDx=0;entryDy=0;" edge="1" parent="1">
          <mxGeometry width="50" height="50" relative="1" as="geometry">
            <mxPoint x="384" y="670" as="sourcePoint" />
            <mxPoint x="384" y="490" as="targetPoint" />
          </mxGeometry>
        </mxCell>
        <mxCell id="eE4sNqY_-e1mMS-vRgXw-33" value="Xóa" style="rounded=0;whiteSpace=wrap;html=1;" vertex="1" parent="1">
          <mxGeometry x="404" y="640" width="70" height="60" as="geometry" />
        </mxCell>
        <mxCell id="eE4sNqY_-e1mMS-vRgXw-34" value="" style="endArrow=none;html=1;rounded=0;exitX=0;exitY=0.5;exitDx=0;exitDy=0;" edge="1" parent="1" source="eE4sNqY_-e1mMS-vRgXw-33">
          <mxGeometry width="50" height="50" relative="1" as="geometry">
            <mxPoint x="494" y="700" as="sourcePoint" />
            <mxPoint x="384" y="670" as="targetPoint" />
          </mxGeometry>
        </mxCell>
        <mxCell id="eE4sNqY_-e1mMS-vRgXw-35" value="Sửa" style="rounded=0;whiteSpace=wrap;html=1;" vertex="1" parent="1">
          <mxGeometry x="404" y="570" width="70" height="60" as="geometry" />
        </mxCell>
        <mxCell id="eE4sNqY_-e1mMS-vRgXw-36" value="Thêm" style="rounded=0;whiteSpace=wrap;html=1;" vertex="1" parent="1">
          <mxGeometry x="404" y="500" width="70" height="60" as="geometry" />
        </mxCell>
        <mxCell id="eE4sNqY_-e1mMS-vRgXw-37" value="" style="endArrow=none;html=1;rounded=0;exitX=0;exitY=0.5;exitDx=0;exitDy=0;" edge="1" parent="1">
          <mxGeometry width="50" height="50" relative="1" as="geometry">
            <mxPoint x="404" y="599.8" as="sourcePoint" />
            <mxPoint x="384" y="599.8" as="targetPoint" />
          </mxGeometry>
        </mxCell>
        <mxCell id="eE4sNqY_-e1mMS-vRgXw-38" value="" style="endArrow=none;html=1;rounded=0;exitX=0;exitY=0.5;exitDx=0;exitDy=0;" edge="1" parent="1">
          <mxGeometry width="50" height="50" relative="1" as="geometry">
            <mxPoint x="404" y="529.8" as="sourcePoint" />
            <mxPoint x="384" y="529.8" as="targetPoint" />
          </mxGeometry>
        </mxCell>
        <mxCell id="eE4sNqY_-e1mMS-vRgXw-39" value="" style="endArrow=none;html=1;rounded=0;entryX=0.25;entryY=1;entryDx=0;entryDy=0;" edge="1" parent="1">
          <mxGeometry width="50" height="50" relative="1" as="geometry">
            <mxPoint x="550" y="670" as="sourcePoint" />
            <mxPoint x="550" y="490" as="targetPoint" />
          </mxGeometry>
        </mxCell>
        <mxCell id="eE4sNqY_-e1mMS-vRgXw-40" value="Xóa" style="rounded=0;whiteSpace=wrap;html=1;" vertex="1" parent="1">
          <mxGeometry x="570" y="640" width="70" height="60" as="geometry" />
        </mxCell>
        <mxCell id="eE4sNqY_-e1mMS-vRgXw-41" value="" style="endArrow=none;html=1;rounded=0;exitX=0;exitY=0.5;exitDx=0;exitDy=0;" edge="1" parent="1" source="eE4sNqY_-e1mMS-vRgXw-40">
          <mxGeometry width="50" height="50" relative="1" as="geometry">
            <mxPoint x="660" y="700" as="sourcePoint" />
            <mxPoint x="550" y="670" as="targetPoint" />
          </mxGeometry>
        </mxCell>
        <mxCell id="eE4sNqY_-e1mMS-vRgXw-42" value="Sửa" style="rounded=0;whiteSpace=wrap;html=1;" vertex="1" parent="1">
          <mxGeometry x="570" y="570" width="70" height="60" as="geometry" />
        </mxCell>
        <mxCell id="eE4sNqY_-e1mMS-vRgXw-43" value="Thêm" style="rounded=0;whiteSpace=wrap;html=1;" vertex="1" parent="1">
          <mxGeometry x="570" y="500" width="70" height="60" as="geometry" />
        </mxCell>
        <mxCell id="eE4sNqY_-e1mMS-vRgXw-44" value="" style="endArrow=none;html=1;rounded=0;exitX=0;exitY=0.5;exitDx=0;exitDy=0;" edge="1" parent="1">
          <mxGeometry width="50" height="50" relative="1" as="geometry">
            <mxPoint x="570" y="599.8" as="sourcePoint" />
            <mxPoint x="550" y="599.8" as="targetPoint" />
          </mxGeometry>
        </mxCell>
        <mxCell id="eE4sNqY_-e1mMS-vRgXw-45" value="" style="endArrow=none;html=1;rounded=0;exitX=0;exitY=0.5;exitDx=0;exitDy=0;" edge="1" parent="1">
          <mxGeometry width="50" height="50" relative="1" as="geometry">
            <mxPoint x="570" y="529.8" as="sourcePoint" />
            <mxPoint x="550" y="529.8" as="targetPoint" />
          </mxGeometry>
        </mxCell>
        <mxCell id="eE4sNqY_-e1mMS-vRgXw-46" value="" style="endArrow=none;html=1;rounded=0;entryX=0.25;entryY=1;entryDx=0;entryDy=0;" edge="1" parent="1">
          <mxGeometry width="50" height="50" relative="1" as="geometry">
            <mxPoint x="720" y="670" as="sourcePoint" />
            <mxPoint x="720" y="490" as="targetPoint" />
          </mxGeometry>
        </mxCell>
        <mxCell id="eE4sNqY_-e1mMS-vRgXw-47" value="Xóa" style="rounded=0;whiteSpace=wrap;html=1;" vertex="1" parent="1">
          <mxGeometry x="740" y="640" width="70" height="60" as="geometry" />
        </mxCell>
        <mxCell id="eE4sNqY_-e1mMS-vRgXw-48" value="" style="endArrow=none;html=1;rounded=0;exitX=0;exitY=0.5;exitDx=0;exitDy=0;" edge="1" parent="1" source="eE4sNqY_-e1mMS-vRgXw-47">
          <mxGeometry width="50" height="50" relative="1" as="geometry">
            <mxPoint x="830" y="700" as="sourcePoint" />
            <mxPoint x="720" y="670" as="targetPoint" />
          </mxGeometry>
        </mxCell>
        <mxCell id="eE4sNqY_-e1mMS-vRgXw-49" value="Sửa" style="rounded=0;whiteSpace=wrap;html=1;" vertex="1" parent="1">
          <mxGeometry x="740" y="570" width="70" height="60" as="geometry" />
        </mxCell>
        <mxCell id="eE4sNqY_-e1mMS-vRgXw-50" value="Thêm" style="rounded=0;whiteSpace=wrap;html=1;" vertex="1" parent="1">
          <mxGeometry x="740" y="500" width="70" height="60" as="geometry" />
        </mxCell>
        <mxCell id="eE4sNqY_-e1mMS-vRgXw-51" value="" style="endArrow=none;html=1;rounded=0;exitX=0;exitY=0.5;exitDx=0;exitDy=0;" edge="1" parent="1">
          <mxGeometry width="50" height="50" relative="1" as="geometry">
            <mxPoint x="740" y="599.8" as="sourcePoint" />
            <mxPoint x="720" y="599.8" as="targetPoint" />
          </mxGeometry>
        </mxCell>
        <mxCell id="eE4sNqY_-e1mMS-vRgXw-52" value="" style="endArrow=none;html=1;rounded=0;exitX=0;exitY=0.5;exitDx=0;exitDy=0;" edge="1" parent="1">
          <mxGeometry width="50" height="50" relative="1" as="geometry">
            <mxPoint x="740" y="529.8" as="sourcePoint" />
            <mxPoint x="720" y="529.8" as="targetPoint" />
          </mxGeometry>
        </mxCell>
        <mxCell id="eE4sNqY_-e1mMS-vRgXw-53" value="" style="endArrow=none;html=1;rounded=0;entryX=0.25;entryY=1;entryDx=0;entryDy=0;" edge="1" parent="1">
          <mxGeometry width="50" height="50" relative="1" as="geometry">
            <mxPoint x="890" y="670" as="sourcePoint" />
            <mxPoint x="890" y="490" as="targetPoint" />
          </mxGeometry>
        </mxCell>
        <mxCell id="eE4sNqY_-e1mMS-vRgXw-54" value="Xóa" style="rounded=0;whiteSpace=wrap;html=1;" vertex="1" parent="1">
          <mxGeometry x="910" y="640" width="70" height="60" as="geometry" />
        </mxCell>
        <mxCell id="eE4sNqY_-e1mMS-vRgXw-55" value="" style="endArrow=none;html=1;rounded=0;exitX=0;exitY=0.5;exitDx=0;exitDy=0;" edge="1" parent="1" source="eE4sNqY_-e1mMS-vRgXw-54">
          <mxGeometry width="50" height="50" relative="1" as="geometry">
            <mxPoint x="1000" y="700" as="sourcePoint" />
            <mxPoint x="890" y="670" as="targetPoint" />
          </mxGeometry>
        </mxCell>
        <mxCell id="eE4sNqY_-e1mMS-vRgXw-56" value="Sửa" style="rounded=0;whiteSpace=wrap;html=1;" vertex="1" parent="1">
          <mxGeometry x="910" y="570" width="70" height="60" as="geometry" />
        </mxCell>
        <mxCell id="eE4sNqY_-e1mMS-vRgXw-57" value="Thêm" style="rounded=0;whiteSpace=wrap;html=1;" vertex="1" parent="1">
          <mxGeometry x="910" y="500" width="70" height="60" as="geometry" />
        </mxCell>
        <mxCell id="eE4sNqY_-e1mMS-vRgXw-58" value="" style="endArrow=none;html=1;rounded=0;exitX=0;exitY=0.5;exitDx=0;exitDy=0;" edge="1" parent="1">
          <mxGeometry width="50" height="50" relative="1" as="geometry">
            <mxPoint x="910" y="599.8" as="sourcePoint" />
            <mxPoint x="890" y="599.8" as="targetPoint" />
          </mxGeometry>
        </mxCell>
        <mxCell id="eE4sNqY_-e1mMS-vRgXw-59" value="" style="endArrow=none;html=1;rounded=0;exitX=0;exitY=0.5;exitDx=0;exitDy=0;" edge="1" parent="1">
          <mxGeometry width="50" height="50" relative="1" as="geometry">
            <mxPoint x="910" y="529.8" as="sourcePoint" />
            <mxPoint x="890" y="529.8" as="targetPoint" />
          </mxGeometry>
        </mxCell>
        <mxCell id="eE4sNqY_-e1mMS-vRgXw-60" value="" style="endArrow=none;html=1;rounded=0;entryX=0.25;entryY=1;entryDx=0;entryDy=0;" edge="1" parent="1">
          <mxGeometry width="50" height="50" relative="1" as="geometry">
            <mxPoint x="1060" y="600" as="sourcePoint" />
            <mxPoint x="1060" y="490" as="targetPoint" />
          </mxGeometry>
        </mxCell>
        <mxCell id="eE4sNqY_-e1mMS-vRgXw-63" value="Xóa" style="rounded=0;whiteSpace=wrap;html=1;" vertex="1" parent="1">
          <mxGeometry x="1080" y="570" width="70" height="60" as="geometry" />
        </mxCell>
        <mxCell id="eE4sNqY_-e1mMS-vRgXw-64" value="Reset Password" style="rounded=0;whiteSpace=wrap;html=1;" vertex="1" parent="1">
          <mxGeometry x="1080" y="500" width="70" height="60" as="geometry" />
        </mxCell>
        <mxCell id="eE4sNqY_-e1mMS-vRgXw-65" value="" style="endArrow=none;html=1;rounded=0;exitX=0;exitY=0.5;exitDx=0;exitDy=0;" edge="1" parent="1">
          <mxGeometry width="50" height="50" relative="1" as="geometry">
            <mxPoint x="1080" y="599.8" as="sourcePoint" />
            <mxPoint x="1060" y="599.8" as="targetPoint" />
          </mxGeometry>
        </mxCell>
        <mxCell id="eE4sNqY_-e1mMS-vRgXw-66" value="" style="endArrow=none;html=1;rounded=0;exitX=0;exitY=0.5;exitDx=0;exitDy=0;" edge="1" parent="1">
          <mxGeometry width="50" height="50" relative="1" as="geometry">
            <mxPoint x="1080" y="529.8" as="sourcePoint" />
            <mxPoint x="1060" y="529.8" as="targetPoint" />
          </mxGeometry>
        </mxCell>
        <mxCell id="eE4sNqY_-e1mMS-vRgXw-67" value="Xem thông tin" style="rounded=0;whiteSpace=wrap;html=1;" vertex="1" parent="1">
          <mxGeometry x="240" y="710" width="70" height="60" as="geometry" />
        </mxCell>
        <mxCell id="eE4sNqY_-e1mMS-vRgXw-69" value="" style="endArrow=none;html=1;rounded=0;exitX=0;exitY=0.5;exitDx=0;exitDy=0;" edge="1" parent="1">
          <mxGeometry width="50" height="50" relative="1" as="geometry">
            <mxPoint x="240" y="739.58" as="sourcePoint" />
            <mxPoint x="220" y="739.58" as="targetPoint" />
          </mxGeometry>
        </mxCell>
      </root>
    </mxGraphModel>
  </diagram>
</mxfile>
